HIERARCHY
ROOT Hips
{
	OFFSET 0.000000 0.000000 0.000000
	CHANNELS 6 Xposition Yposition Zposition Zrotation Yrotation Xrotation 
	JOINT LHipJoint
	{
		OFFSET 0.000000 0.000000 0.000000
		CHANNELS 3 Zrotation Yrotation Xrotation
		JOINT LeftUpLeg
		{
			OFFSET 1.363060 -1.794630 0.839290
			CHANNELS 3 Zrotation Yrotation Xrotation
			JOINT LeftLeg
			{
				OFFSET 2.448110 -6.726130 0.000000
				CHANNELS 3 Zrotation Yrotation Xrotation
				JOINT LeftFoot
				{
					OFFSET 2.562200 -7.039590 0.000000
					CHANNELS 3 Zrotation Yrotation Xrotation
					JOINT LeftToeBase
					{
						OFFSET 0.157640 -0.433110 2.322550
						CHANNELS 3 Zrotation Yrotation Xrotation
						End Site
						{
							OFFSET 0.000000 0.000000 0.000000
						}
					}
				}
			}
		}
	}
	JOINT RHipJoint
	{
		OFFSET 0.000000 0.000000 0.000000
		CHANNELS 3 Zrotation Yrotation Xrotation
		JOINT RightUpLeg
		{
			OFFSET -1.305520 -1.794630 0.839290
			CHANNELS 3 Zrotation Yrotation Xrotation
			JOINT RightLeg
			{
				OFFSET -2.542530 -6.985550 0.000000
				CHANNELS 3 Zrotation Yrotation Xrotation
				JOINT RightFoot
				{
					OFFSET -2.568260 -7.056230 0.000000
					CHANNELS 3 Zrotation Yrotation Xrotation
					JOINT RightToeBase
					{
						OFFSET -0.164730 -0.452590 2.363150
						CHANNELS 3 Zrotation Yrotation Xrotation
						End Site
						{
							OFFSET 0.000000 0.000000 0.000000
						}
					}
				}
			}
		}
	}
	JOINT LowerBack
	{
		OFFSET 0.000000 0.000000 0.000000
		CHANNELS 3 Zrotation Yrotation Xrotation
		JOINT Spine
		{
			OFFSET 0.028270 2.035590 -0.193380
			CHANNELS 3 Zrotation Yrotation Xrotation
			JOINT Spine1
			{
				OFFSET 0.056720 2.048850 -0.042750
				CHANNELS 3 Zrotation Yrotation Xrotation
				JOINT Neck
				{
					OFFSET 0.000000 0.000000 0.000000
					CHANNELS 3 Zrotation Yrotation Xrotation
					JOINT Neck1
					{
						OFFSET -0.054170 1.746240 0.172020
						CHANNELS 3 Zrotation Yrotation Xrotation
						JOINT Head
						{
							OFFSET 0.104070 1.761360 -0.123970
							CHANNELS 3 Zrotation Yrotation Xrotation
							End Site
							{
								OFFSET 0.000000 0.000000 0.000000
							}
						}
					}
				}
				JOINT LeftShoulder
				{
					OFFSET 0.000000 0.000000 0.000000
					CHANNELS 3 Zrotation Yrotation Xrotation
					JOINT LeftArm
					{
						OFFSET 3.362410 1.200890 -0.311210
						CHANNELS 3 Zrotation Yrotation Xrotation
						JOINT LeftForeArm
						{
							OFFSET 4.983000 -0.000000 -0.000000
							CHANNELS 3 Zrotation Yrotation Xrotation
							JOINT LeftHand
							{
								OFFSET 3.483560 -0.000000 -0.000000
								CHANNELS 3 Zrotation Yrotation Xrotation
								JOINT LeftFingerBase
								{
									OFFSET 0.000000 0.000000 0.000000
									CHANNELS 3 Zrotation Yrotation Xrotation
									JOINT LeftHandIndex1
									{
										OFFSET 0.715260 -0.000000 -0.000000
										CHANNELS 3 Zrotation Yrotation Xrotation
										End Site
										{
											OFFSET 0.000000 0.000000 0.000000
										}
									}
								}
								JOINT LThumb
								{
									OFFSET 0.000000 0.000000 0.000000
									CHANNELS 3 Zrotation Yrotation Xrotation
									End Site
									{
										OFFSET 0.000000 0.000000 0.000000
									}
								}
							}
						}
					}
				}
				JOINT RightShoulder
				{
					OFFSET 0.000000 0.000000 0.000000
					CHANNELS 3 Zrotation Yrotation Xrotation
					JOINT RightArm
					{
						OFFSET -3.136600 1.374050 -0.404650
						CHANNELS 3 Zrotation Yrotation Xrotation
						JOINT RightForeArm
						{
							OFFSET -5.241900 -0.000000 -0.000000
							CHANNELS 3 Zrotation Yrotation Xrotation
							JOINT RightHand
							{
								OFFSET -3.444170 -0.000000 -0.000000
								CHANNELS 3 Zrotation Yrotation Xrotation
								JOINT RightFingerBase
								{
									OFFSET 0.000000 0.000000 0.000000
									CHANNELS 3 Zrotation Yrotation Xrotation
									JOINT RightHandIndex1
									{
										OFFSET -0.622530 -0.000000 -0.000000
										CHANNELS 3 Zrotation Yrotation Xrotation
										End Site
										{
											OFFSET 0.000000 0.000000 0.000000
										}
									}
								}
								JOINT RThumb
								{
									OFFSET 0.000000 0.000000 0.000000
									CHANNELS 3 Zrotation Yrotation Xrotation
									End Site
									{
										OFFSET 0.000000 0.000000 0.000000
									}
								}
							}
						}
					}
				}
			}
		}
	}
}
MOTION
Frames: 6
Frame Time: 0.008333
9.893173 17.571846 4.979312 133.800744 -86.227002 -133.774408 -1.184795 -1.655055 -1.077610 -24.389260 -2.975866 -8.882786 1.284149 9.138993 24.798168 0.942946 -4.036302 -1.607440 0.159200 2.570800 7.086000 -0.203956 1.060923 -2.068865 7.431766 5.315733 -40.616904 -22.847997 -20.410128 98.090113 -0.840186 -6.858538 21.949418 -0.910700 -6.080900 17.019200 -2.945431 -2.781233 3.884622 0.540579 -3.262151 -5.135295 4.801554 -1.934995 -1.973959 -4.575832 -2.020406 -18.155482 5.139289 -2.355601 11.897724 2.409400 -1.072100 9.397400 5.373303 3.575596 0.324131 -87.885260 -7.714976 32.918816 28.881760 -45.861122 -9.554899 0.045937 2.326374 0.400503 11.797662 13.454882 2.296200 -7.125000 0.000000 0.000000 -13.525200 40.909700 1.393100 -3.140553 -4.412099 -2.172825 82.892379 -17.390798 22.348647 -22.933852 38.903390 -9.067779 -0.355090 0.517523 2.420734 -10.961357 -7.837782 1.556400 7.125000 0.000000 0.000000 13.925500 -38.130300 2.411600 
9.759082 17.605319 4.968354 126.866859 -86.593065 -127.082741 -1.093733 -1.615982 -1.049911 -24.636319 -3.025375 -7.671882 1.183122 8.896735 24.102164 0.967194 -4.223166 -1.535371 0.152000 2.512100 6.923200 -0.134752 1.086244 -2.102866 6.946087 5.510273 -43.401069 -23.232864 -20.374310 99.158981 -0.750810 -7.270885 21.614836 -1.007100 -6.385700 17.907600 -3.150063 -3.060008 4.308770 0.609171 -3.664876 -5.114141 5.068970 -2.121654 -2.105951 -4.523155 -1.883732 -18.174779 5.053052 -2.174534 11.938654 2.377500 -0.993700 9.416400 5.375765 3.644986 0.286415 -87.707912 -9.572932 32.900448 28.979325 -45.911277 -9.628015 0.060437 2.317937 0.383234 11.986388 13.299251 2.300200 -7.125000 0.000000 0.000000 -13.340100 40.778300 1.417300 -3.128123 -4.481498 -2.193293 82.844259 -18.452872 21.225989 -22.234185 38.239186 -8.659138 -0.354287 0.521521 2.200505 -10.953648 -7.894237 1.567000 7.125000 0.000000 0.000000 13.943200 -38.190900 2.393500 
9.624692 17.636003 4.956200 119.533679 -86.932714 -120.003706 -0.999283 -1.551211 -1.013702 -24.805774 -3.079083 -6.489765 1.091783 8.677109 23.462158 0.989042 -4.396707 -1.465990 0.143000 2.437200 6.715600 -0.065414 1.130801 -2.144065 6.513649 5.702375 -46.071428 -23.516368 -20.339044 99.934244 -0.655574 -7.720019 21.261567 -1.111600 -6.698200 18.824300 -3.304093 -3.322895 4.747935 0.687106 -4.049198 -5.086563 5.333835 -2.293786 -2.225973 -4.462914 -1.753203 -18.198794 4.970392 -2.002002 11.944949 2.344100 -0.918000 9.423400 5.372563 3.716658 0.250728 -87.523229 -11.370129 32.844464 29.147475 -46.012517 -9.737488 0.070240 2.308866 0.371299 12.140425 13.159757 2.301100 -7.125000 0.000000 0.000000 -13.185200 40.660700 1.439200 -3.112898 -4.541962 -2.212986 82.754311 -19.518864 20.202398 -21.628677 37.657621 -8.314159 -0.351841 0.526426 2.073017 -10.895932 -7.886673 1.558500 7.125000 0.000000 0.000000 13.988100 -38.185200 2.403600 
9.489604 17.663997 4.943249 111.761813 -87.230267 -112.475681 -0.909726 -1.464428 -0.969363 -24.916419 -3.153499 -5.355669 1.009852 8.481545 22.881014 1.005561 -4.532434 -1.408798 0.132300 2.344800 6.459600 -0.002969 1.191991 -2.191799 6.115610 5.908490 -48.645794 -23.705195 -20.307848 100.433045 -0.555560 -8.223630 20.913973 -1.219700 -7.005300 19.731000 -3.418751 -3.565370 5.174876 0.770502 -4.406847 -5.056986 5.588478 -2.448211 -2.333438 -4.399135 -1.631906 -18.222640 4.898539 -1.842619 11.923452 2.312500 -0.846800 9.420300 5.363682 3.790818 0.216669 -87.321944 -13.112742 32.771477 29.370210 -46.150940 -9.873809 0.073495 2.299747 0.340993 12.239191 13.044815 2.297000 -7.125000 0.000000 0.000000 -13.079400 40.563400 1.459200 -3.095725 -4.593595 -2.232063 82.631646 -20.583779 19.266906 -21.092697 37.138668 -8.015912 -0.347926 0.532964 2.096302 -10.823752 -7.819107 1.536900 7.125000 0.000000 0.000000 14.032300 -38.120100 2.434600 
9.353919 17.689500 4.929701 103.530483 -87.467252 -104.453567 -0.832533 -1.360831 -0.917979 -24.992109 -3.259139 -4.290063 0.936406 8.309386 22.356422 1.015490 -4.620035 -1.367278 0.120400 2.236600 6.160000 0.046230 1.266081 -2.244856 5.726852 6.140073 -51.144333 -23.805755 -20.283287 100.671113 -0.451472 -8.787471 20.584548 -1.319400 -7.275000 20.532700 -3.514216 -3.786103 5.562834 0.855299 -4.734341 -5.029493 5.828404 -2.583892 -2.426363 -4.335554 -1.522223 -18.241721 4.843175 -1.699675 11.879465 2.285200 -0.781400 9.408100 5.349231 3.867670 0.183721 -87.097978 -14.811281 32.697787 29.629183 -46.312280 -10.027194 0.068648 2.292790 0.284791 12.265892 12.987673 2.291900 -7.125000 0.000000 0.000000 -13.042600 40.515900 1.470500 -3.077521 -4.637264 -2.250601 82.483860 -21.643089 18.414715 -20.607711 36.667118 -7.752844 -0.342106 0.539453 2.278207 -10.668442 -7.717106 1.496700 7.125000 0.000000 0.000000 14.137900 -38.014100 2.491600 
9.217237 17.712911 4.915754 95.143724 -87.625591 -96.224023 -0.775694 -1.249381 -0.861689 -25.052919 -3.391706 -3.310505 0.870954 8.158785 21.885177 1.019301 -4.659831 -1.348027 0.107200 2.111100 5.812900 0.075148 1.345546 -2.300574 5.321739 6.409070 -53.584358 -23.822499 -20.267924 100.658932 -0.343938 -9.430409 20.300363 -1.407000 -7.502800 21.213800 -3.612814 -3.982146 5.893061 0.938291 -5.026338 -5.009071 6.053451 -2.699770 -2.508832 -4.275986 -1.426929 -18.253514 4.805012 -1.576741 11.825091 2.263200 -0.723700 9.391000 5.329493 3.945195 0.151808 -86.846917 -16.456532 32.638070 29.913847 -46.487456 -10.191624 0.059817 2.283635 0.190030 12.254624 12.918406 2.278000 -7.125000 0.000000 0.000000 -13.034100 40.455900 1.489200 -3.058755 -4.674056 -2.269578 82.313455 -22.697508 17.650088 -20.154564 36.224516 -7.512113 -0.335167 0.546946 2.575078 -10.507167 -7.579285 1.449900 7.125000 0.000000 0.000000 14.240500 -37.872900 2.561200 
